PathFileType	4	(X/Y/Z)	C:\Users\dbl\Desktop\LZH\BX\Trimmed_bx_y_0_1801.trc
DataRate	CameraRate	NumFrames	NumMarkers	Units	OrigDataRate	OrigDataStartFrame	OrigNumFrames
50.00	50.00	      4	43	mm	50.00	185	      1475
Frame#	Time	Top.Head			R.Acromium			L.Acromium			Sternum			R.ASIS			L.ASIS			V.Sacral			R.Thigh.Upper			R.Thigh.Front			R.Thigh.Rear			R.Knee.Lat			R.Knee.Med			R.Shank.Upper			R.Shank.Front			R.Shank.Rear			R.Ankle.Lat			R.Midfoot.Lat			R.Toe.Lat			R.Toe.Tip			R.Toe.Med			R.Ankle.Med			R.Midfoot.Sup			R.Heel			L.Thigh.Upper			L.Thigh.Front			L.Thigh.Rear			L.Knee.Lat			L.Knee.Med			L.Shank.Upper			L.Shank.Front			L.Shank.Rear			L.Ankle.Lat			L.Midfoot.Lat			L.Toe.Lat			L.Toe.Tip			L.Toe.Med			L.Ankle.Med			L.Midfoot.Sup			L.Heel			origin1 front left			origin2 front right			origin 3 back right			origin 4 back leftt			
		X1	Y1	Z1	X2	Y2	Z2	X3	Y3	Z3	X4	Y4	Z4	X5	Y5	Z5	X6	Y6	Z6	X7	Y7	Z7	X8	Y8	Z8	X9	Y9	Z9	X10	Y10	Z10	X11	Y11	Z11	X12	Y12	Z12	X13	Y13	Z13	X14	Y14	Z14	X15	Y15	Z15	X16	Y16	Z16	X17	Y17	Z17	X18	Y18	Z18	X19	Y19	Z19	X20	Y20	Z20	X21	Y21	Z21	X22	Y22	Z22	X23	Y23	Z23	X24	Y24	Z24	X25	Y25	Z25	X26	Y26	Z26	X27	Y27	Z27	X28	Y28	Z28	X29	Y29	Z29	X30	Y30	Z30	X31	Y31	Z31	X32	Y32	Z32	X33	Y33	Z33	X34	Y34	Z34	X35	Y35	Z35	X36	Y36	Z36	X37	Y37	Z37	X38	Y38	Z38	X39	Y39	Z39	X40	Y40	Z40	X41	Y41	Z41	X42	Y42	Z42	X43	Y43	Z43	

185	3.680	-299.83740	268.81354	1402.24463	-404.06006	61.63390	1127.12463	-417.02899	456.40103	1125.55420	-421.40851	237.99609	1068.90173	-688.60449	154.94441	869.46558	-697.00262	352.16553	969.74982	-883.05988	253.17401	857.94067	-671.81470	89.78915	740.50354	-608.76599	153.95805	745.63892	-560.55273	67.45396	664.99658	-487.36163	90.17962	530.94275	-456.52112	199.25897	511.59927	-511.75043	91.63493	486.64401	-419.38300	140.29803	495.19046	-575.87750	103.84155	446.21527	-666.45648	155.84625	217.38336	-610.76331	87.98330	173.35988	-569.46057	61.51797	167.54176	-493.10306	89.93203	161.30617	-528.57550	146.92207	159.75241	-612.96442	227.91266	203.11400	-585.50568	196.53410	159.98964	-709.96436	225.36943	172.86288	-652.29382	451.61972	738.78198	-590.47131	388.34216	744.49249	-577.43414	461.42215	631.19165	-493.73102	439.90823	542.33057	-430.16473	339.44525	521.18469	-480.70877	441.88321	500.19690	-429.26459	395.52972	472.66943	-545.50378	435.74466	469.81226	-663.72290	406.67276	212.30374	-584.92291	463.34665	167.75043	-546.87964	475.53940	163.54405	-486.42850	430.14700	167.48633	-522.12836	385.28680	175.34801	-627.53387	318.18802	198.69586	-589.35675	341.77112	163.97806	-728.76068	335.53506	166.76971	-443.97949	448.72678	148.19954	-450.26898	76.19012	143.27219	-806.21478	82.45095	142.73727	-798.99640	457.86850	145.61995	
186	3.700	-298.93518	269.38940	1398.89038	-403.42682	62.00848	1123.91724	-416.02484	456.74084	1122.18408	-420.55182	238.22809	1065.40503	-688.85297	155.27798	868.03003	-697.41437	351.80054	969.29443	-883.46558	253.84547	856.59644	-672.53906	90.38258	739.25055	-609.64124	154.58362	744.79987	-559.61011	67.66663	663.72778	-487.30701	90.51464	530.86841	-456.67606	199.27777	511.13666	-511.52557	92.00342	486.39233	-419.24115	140.69089	495.17444	-575.63953	104.05053	446.14917	-666.37708	155.94994	217.42325	-610.66125	88.12070	173.43091	-569.38690	61.80733	167.59901	-493.09509	90.02164	161.17877	-528.57306	146.85651	159.87859	-612.90552	228.01010	203.04259	-585.41199	196.60783	160.01732	-709.94550	225.45570	172.78180	-652.52643	452.08450	737.60291	-591.03552	388.70581	743.67096	-577.47064	461.82486	630.48523	-493.39874	440.04926	541.98022	-430.04126	339.37439	521.01959	-480.37192	441.96674	499.86346	-428.95724	395.45178	472.42200	-545.15485	435.79559	469.53058	-663.71576	406.59128	212.23756	-584.88947	463.35095	167.77269	-546.95007	475.58682	163.54944	-486.46011	430.21899	167.54262	-522.16693	385.28476	175.33180	-627.50427	318.22012	198.61182	-589.30267	341.76370	163.96199	-728.83514	335.53177	166.75035	-443.98550	448.71667	148.18773	-450.26761	76.19602	143.27547	-806.21747	82.46391	142.71733	-799.01904	457.83121	145.70219	
187	3.720	-297.84564	269.91748	1395.82397	-402.84180	62.34416	1121.05823	-415.13568	457.03119	1119.23901	-419.71368	238.47057	1061.98633	-689.07764	155.61194	866.68506	-697.79004	351.43927	968.87708	-883.76025	254.53734	855.38818	-673.16949	90.99817	738.13647	-610.37531	155.22372	744.07166	-558.71826	67.88876	662.47791	-487.24405	90.83020	530.83099	-456.78174	199.30894	510.70471	-511.36078	92.39303	486.16815	-419.10013	141.06863	495.16574	-575.43567	104.22867	446.12463	-666.36017	156.02454	217.43492	-610.58710	88.21427	173.46921	-569.31830	61.99570	167.61093	-493.11166	90.08850	161.10512	-528.58337	146.76103	160.05983	-612.84882	228.10309	202.97908	-585.37488	196.64690	160.04787	-709.93060	225.50922	172.72375	-652.66046	452.57730	736.59576	-591.45422	389.15314	742.96643	-577.46198	462.35690	629.88513	-493.09619	440.36612	541.70282	-429.88116	339.44693	520.86462	-480.08954	442.20810	499.54340	-428.69989	395.54843	472.16928	-544.85590	435.97421	469.24191	-663.72522	406.52353	212.18890	-584.91095	463.36288	167.74490	-547.06305	475.68192	163.54887	-486.49210	430.30505	167.60138	-522.20740	385.32755	175.33920	-627.47168	318.23746	198.57646	-589.28143	341.75092	163.95587	-728.87976	335.47827	166.72105	-443.99078	448.71255	148.17549	-450.26315	76.20256	143.28139	-806.20886	82.47675	142.69328	-799.04034	457.73248	145.83827	
188	3.740	-296.59360	270.40076	1393.06433	-402.33231	62.64692	1118.56348	-414.35632	457.28372	1116.74902	-418.89435	238.72311	1058.64697	-689.27838	155.94600	865.42987	-698.12982	351.08182	968.49713	-883.93658	255.24965	854.27417	-673.68170	91.64373	737.12415	-610.94940	155.88937	743.41260	-557.87646	68.11999	661.24768	-487.09149	91.18451	530.79419	-456.85031	199.34781	510.30258	-511.19745	92.82307	485.99854	-418.90186	141.48375	495.14154	-575.22229	104.43419	446.12665	-666.37402	156.09523	217.42921	-610.52875	88.29539	173.50174	-569.24701	62.10908	167.60455	-493.14761	90.12981	161.08395	-528.59778	146.65038	160.27246	-612.80072	228.21907	202.91255	-585.38245	196.67300	160.07135	-709.92120	225.54776	172.69353	-652.66577	453.08707	735.72742	-591.72546	389.64145	742.33826	-577.37024	462.95639	629.35217	-492.76703	440.81552	541.50433	-429.67078	339.62613	520.69196	-479.81375	442.53598	499.24918	-428.46234	395.76514	471.91458	-544.58850	436.22882	468.93497	-663.73846	406.46429	212.16956	-584.96210	463.36404	167.67711	-547.19617	475.79037	163.55222	-486.51944	430.40027	167.65488	-522.23657	385.39493	175.35886	-627.43445	318.23029	198.57903	-589.30377	341.71542	163.94351	-728.89478	335.38385	166.70729	-443.99426	448.71646	148.16743	-450.26108	76.20394	143.28484	-806.19092	82.48696	142.67207	-799.06403	457.59509	146.00757	
